<?xml version="1.0" encoding="utf-8"?>
<!-- Generator: Adobe Illustrator 24.0.2, SVG Export Plug-In . SVG Version: 6.00 Build 0)  -->
<svg version="1.1" id="圖層_1" xmlns="http://www.w3.org/2000/svg" xmlns:xlink="http://www.w3.org/1999/xlink" x="0px" y="0px"
	 viewBox="0 0 181 28" style="enable-background:new 0 0 181 28;" xml:space="preserve">
<style type="text/css">
	.st0{fill:#FFFFFF;}
</style>
<g id="Group_1526" transform="translate(9.272)">
	<g id="Group_1527" transform="translate(-9.272)">
		<path id="Path_1" class="st0" d="M7.89,27.36V8.34H0.96V1.53H22.6v6.81h-6.89v19.02H7.89z"/>
		<path id="Path_2" class="st0" d="M43.8,27.36l-3.56-8.13h-2.83v8.13h-7.82V1.52h13.78c6.04,0,9.29,4.03,9.29,8.87
			c0.14,3.3-1.68,6.37-4.65,7.82l4.69,9.14L43.8,27.36L43.8,27.36z M44.72,10.36c0-1.39-1.24-2.01-2.55-2.01h-4.76v4.06h4.76
			C43.49,12.4,44.72,11.79,44.72,10.36L44.72,10.36z"/>
		<path id="Path_3" class="st0" d="M59.35,27.36V1.52h7.82v25.83L59.35,27.36L59.35,27.36z"/>
		<path id="Path_4" class="st0" d="M74.24,27.36V1.52h13.78c6.04,0,9.29,4.03,9.29,8.87c0,4.8-3.26,8.83-9.29,8.83h-5.97v8.13
			L74.24,27.36L74.24,27.36z M89.38,10.4c0-1.39-1.04-2.06-2.36-2.06h-4.96v4.06h4.96C88.34,12.4,89.38,11.75,89.38,10.4z"/>
		<path id="Path_5" class="st0" d="M104.01,27.36V1.52h7.82v19.01h9.8v6.81L104.01,27.36L104.01,27.36z"/>
		<path id="Path_6" class="st0" d="M128.06,27.36V1.52h19.59v6.81h-11.78v2.55h11.5v6.81h-11.5v2.83h11.77v6.81h-19.59V27.36z"/>
		<path id="Path_7" class="st0" d="M154.4,14.46c0-8.09,5.94-13.55,13.81-13.55c6.88,0,10.84,4.01,12.41,7.62l-6.73,3.18
			c-1.05-1.99-3.11-3.24-5.37-3.26c-3.25-0.1-5.97,2.45-6.07,5.7c-0.1,3.25,2.45,5.97,5.7,6.07c0.11,0,0.23,0,0.34,0
			c2.17,0.07,4.16-1.2,5.02-3.19l7.11,3.31c-1.92,4.79-6.64,7.85-11.8,7.66C160.35,28.01,154.4,22.31,154.4,14.46z"/>
	</g>
</g>
</svg>
